<svg version="1.1" viewBox="0.0 0.0 150.0 50.0" fill="none" stroke="none" stroke-linecap="square" stroke-miterlimit="10" xmlns:xlink="http://www.w3.org/1999/xlink" xmlns="http://www.w3.org/2000/svg"><clipPath id="p.0"><path d="m0 0l150.0 0l0 50.0l-150.0 0l0 -50.0z" clip-rule="nonzero"/></clipPath><g clip-path="url(#p.0)"><path fill="#000000" fill-opacity="0.0" d="m0 0l150.0 0l0 50.0l-150.0 0z" fill-rule="evenodd"/><path fill="#000000" fill-opacity="0.0" d="m0 13.692913l150.01575 0l0 22.614174l-150.01575 0z" fill-rule="evenodd"/><path fill="#ffffff" d="m6.3882217 31.831661q-1.328125 0 -2.4375 -0.484375q-1.109375 -0.5 -1.8125 -1.40625l1.671875 -2.015625q1.0625 1.4375 2.4375 1.4375q1.84375 0 1.84375 -2.171875l0 -6.21875l-4.59375 0l0 -2.421875l7.59375 0l0 8.46875q0 2.40625 -1.203125 3.609375q-1.1875 1.203125 -3.5 1.203125zm17.311783 -5.203125q0 0.0625 -0.046875 0.78125l-7.59375 0q0.203125 0.9375 0.96875 1.484375q0.765625 0.53125 1.90625 0.53125q0.78125 0 1.375 -0.234375q0.609375 -0.234375 1.140625 -0.734375l1.546875 1.6875q-1.421875 1.625 -4.140625 1.625q-1.703125 0 -3.015625 -0.65625q-1.296875 -0.671875 -2.015625 -1.84375q-0.703125 -1.1875 -0.703125 -2.671875q0 -1.484375 0.703125 -2.65625q0.703125 -1.1875 1.921875 -1.84375q1.21875 -0.671875 2.734375 -0.671875q1.46875 0 2.65625 0.640625q1.203125 0.625 1.875 1.8125q0.6875 1.1875 0.6875 2.75zm-5.203125 -3.0q-0.984375 0 -1.65625 0.5625q-0.671875 0.5625 -0.828125 1.53125l4.953125 0q-0.15625 -0.953125 -0.828125 -1.515625q-0.671875 -0.578125 -1.640625 -0.578125zm10.913971 -2.203125q2.328125 0 3.578125 1.109375q1.25 1.109375 1.25 3.34375l0 5.734375l-2.71875 0l0 -1.25q-0.828125 1.40625 -3.0625 1.40625q-1.15625 0 -2.015625 -0.390625q-0.84375 -0.40625 -1.296875 -1.09375q-0.4375 -0.6875 -0.4375 -1.5625q0 -1.40625 1.046875 -2.203125q1.0625 -0.796875 3.265625 -0.796875l2.3125 0q0 -0.953125 -0.578125 -1.46875q-0.578125 -0.515625 -1.734375 -0.515625q-0.796875 0 -1.578125 0.25q-0.765625 0.25 -1.3125 0.6875l-1.046875 -2.03125q0.828125 -0.578125 1.96875 -0.890625q1.140625 -0.328125 2.359375 -0.328125zm-0.21875 8.375q0.734375 0 1.3125 -0.34375q0.59375 -0.34375 0.828125 -1.015625l0 -1.03125l-2.0 0q-1.78125 0 -1.78125 1.1875q0 0.546875 0.4375 0.875q0.4375 0.328125 1.203125 0.328125zm13.776535 -8.375q1.875 0 3.015625 1.125q1.15625 1.109375 1.15625 3.3125l0 5.75l-2.921875 0l0 -5.296875q0 -1.203125 -0.515625 -1.78125q-0.515625 -0.59375 -1.515625 -0.59375q-1.09375 0 -1.75 0.6875q-0.65625 0.671875 -0.65625 2.015625l0 4.96875l-2.90625 0l0 -10.03125l2.78125 0l0 1.171875q0.578125 -0.640625 1.4375 -0.984375q0.859375 -0.34375 1.875 -0.34375zm12.280563 -2.875l5.9375 0q2.125 0 3.75 0.8125q1.640625 0.8125 2.546875 2.296875q0.90625 1.46875 0.90625 3.421875q0 1.953125 -0.90625 3.4375q-0.90625 1.46875 -2.546875 2.28125q-1.625 0.8125 -3.75 0.8125l-5.9375 0l0 -13.0625zm5.78125 10.578125q1.96875 0 3.125 -1.09375q1.171875 -1.09375 1.171875 -2.953125q0 -1.859375 -1.171875 -2.953125q-1.15625 -1.09375 -3.125 -1.09375l-2.75 0l0 8.09375l2.75 0zm19.535065 -7.546875l0 10.03125l-2.765625 0l0 -1.1875q-0.578125 0.640625 -1.375 1.0q-0.796875 0.34375 -1.734375 0.34375q-1.984375 0 -3.140625 -1.140625q-1.15625 -1.140625 -1.15625 -3.375l0 -5.671875l2.921875 0l0 5.234375q0 2.421875 2.03125 2.421875q1.046875 0 1.671875 -0.671875q0.640625 -0.6875 0.640625 -2.03125l0 -4.953125l2.90625 0zm8.644974 -0.15625q1.390625 0 2.53125 0.640625q1.15625 0.640625 1.8125 1.8125q0.65625 1.171875 0.65625 2.71875q0 1.546875 -0.65625 2.71875q-0.65625 1.15625 -1.8125 1.8125q-1.140625 0.640625 -2.53125 0.640625q-1.921875 0 -3.03125 -1.21875l0 4.6875l-2.90625 0l0 -13.65625l2.78125 0l0 1.15625q1.078125 -1.3125 3.15625 -1.3125zm-0.515625 7.953125q1.125 0 1.84375 -0.75q0.71875 -0.765625 0.71875 -2.03125q0 -1.265625 -0.71875 -2.015625q-0.71875 -0.765625 -1.84375 -0.765625q-1.109375 0 -1.828125 0.765625q-0.71875 0.75 -0.71875 2.015625q0 1.265625 0.71875 2.03125q0.71875 0.75 1.828125 0.75zm12.232193 2.390625q-1.59375 0 -2.859375 -0.65625q-1.25 -0.671875 -1.96875 -1.84375q-0.703125 -1.1875 -0.703125 -2.671875q0 -1.5 0.703125 -2.671875q0.71875 -1.171875 1.96875 -1.828125q1.265625 -0.671875 2.859375 -0.671875q1.578125 0 2.828125 0.671875q1.25 0.65625 1.953125 1.828125q0.71875 1.171875 0.71875 2.671875q0 1.484375 -0.71875 2.671875q-0.703125 1.171875 -1.953125 1.84375q-1.25 0.65625 -2.828125 0.65625zm0 -2.390625q1.109375 0 1.828125 -0.75q0.71875 -0.765625 0.71875 -2.03125q0 -1.265625 -0.71875 -2.015625q-0.71875 -0.765625 -1.828125 -0.765625q-1.125 0 -1.859375 0.765625q-0.71875 0.75 -0.71875 2.015625q0 1.265625 0.71875 2.03125q0.734375 0.75 1.859375 0.75zm13.532349 -7.953125q1.875 0 3.015625 1.125q1.15625 1.109375 1.15625 3.3125l0 5.75l-2.921875 0l0 -5.296875q0 -1.203125 -0.515625 -1.78125q-0.515625 -0.59375 -1.515625 -0.59375q-1.09375 0 -1.75 0.6875q-0.65625 0.671875 -0.65625 2.015625l0 4.96875l-2.90625 0l0 -10.03125l2.78125 0l0 1.171875q0.578125 -0.640625 1.4375 -0.984375q0.859375 -0.34375 1.875 -0.34375zm17.128456 -3.65625l0 13.84375l-2.78125 0l0 -1.15625q-1.0781174 1.3125 -3.1249924 1.3125q-1.421875 0 -2.578125 -0.640625q-1.140625 -0.640625 -1.796875 -1.8125q-0.640625 -1.171875 -0.640625 -2.71875q0 -1.546875 0.640625 -2.71875q0.65625 -1.1875 1.796875 -1.8125q1.15625 -0.640625 2.578125 -0.640625q1.921875 0 2.9999924 1.21875l0 -4.875l2.90625 0zm-5.4062424 11.609375q1.09375 0 1.8281174 -0.75q0.734375 -0.765625 0.734375 -2.03125q0 -1.265625 -0.734375 -2.015625q-0.7343674 -0.765625 -1.8281174 -0.765625q-1.125 0 -1.859375 0.765625q-0.71875 0.75 -0.71875 2.015625q0 1.265625 0.71875 2.03125q0.734375 0.75 1.859375 0.75zm14.081993 -10.875q1.84375 0 3.34375 0.859375q1.515625 0.84375 2.375 2.359375q0.859375 1.5 0.859375 3.328125q0 1.828125 -0.890625 3.34375q-0.875 1.515625 -2.390625 2.40625q-1.5 0.875 -3.328125 0.875q-1.828125 0 -3.328125 -0.875q-1.5 -0.890625 -2.375 -2.390625q-0.859375 -1.515625 -0.859375 -3.328125q0 -1.8125 0.859375 -3.3125q0.875 -1.515625 2.375 -2.390625q1.515625 -0.875 3.359375 -0.875zm-0.03125 11.953125q1.484375 0 2.703125 -0.71875q1.234375 -0.71875 1.921875 -1.953125q0.703125 -1.25 0.703125 -2.734375q0 -1.515625 -0.6875 -2.71875q-0.671875 -1.21875 -1.890625 -1.921875q-1.203125 -0.703125 -2.71875 -0.703125q-1.5 0 -2.71875 0.71875q-1.21875 0.703125 -1.90625 1.9375q-0.6875 1.234375 -0.6875 2.71875q0 1.5 0.6875 2.734375q0.6875 1.21875 1.890625 1.9375q1.203125 0.703125 2.703125 0.703125zm3.46875 -6.421875q0 0.78125 -0.34375 1.359375q-0.34375 0.5625 -1.015625 0.890625l1.578125 2.421875l-1.9375 0l-1.359375 -2.09375l-0.078125 0l-1.203125 0l0 2.09375l-1.953125 0l0 -7.25l3.15625 0q1.46875 0 2.3125 0.703125q0.84375 0.703125 0.84375 1.875zm-3.28125 1.125q0.65625 0 1.015625 -0.28125q0.359375 -0.296875 0.359375 -0.84375q0 -0.53125 -0.359375 -0.828125q-0.359375 -0.3125 -1.015625 -0.3125l-1.109375 0l0 2.265625l1.109375 0z" fill-rule="nonzero"/></g></svg>